<?xml version="1.0" encoding="UTF-8"?>
<svg xmlns="http://www.w3.org/2000/svg" xmlns:xlink="http://www.w3.org/1999/xlink" width="854" height="480" viewBox="0 0 854 480">
<defs>
<g>
<g id="glyph-0-0">
<path d="M 0.0859375 -0.140625 C 0.371094 -0.171875 0.558594 -0.222656 0.644531 -0.292969 C 0.730469 -0.367188 0.769531 -0.550781 0.769531 -0.84375 L 0.769531 -4.300781 C 0.769531 -4.578125 0.730469 -4.757812 0.644531 -4.84375 C 0.5625 -4.929688 0.375 -4.980469 0.0859375 -5 L 0.0859375 -5.144531 L 2.285156 -5.144531 L 2.285156 -5 C 2 -4.984375 1.808594 -4.9375 1.710938 -4.859375 C 1.613281 -4.78125 1.566406 -4.613281 1.566406 -4.355469 L 1.566406 -0.617188 C 1.566406 -0.53125 1.578125 -0.464844 1.609375 -0.414062 C 1.636719 -0.367188 1.703125 -0.335938 1.800781 -0.324219 C 1.859375 -0.316406 1.917969 -0.308594 1.984375 -0.308594 C 2.046875 -0.304688 2.167969 -0.304688 2.347656 -0.304688 C 3.039062 -0.304688 3.503906 -0.359375 3.75 -0.476562 C 3.992188 -0.589844 4.226562 -0.878906 4.453125 -1.347656 L 4.652344 -1.347656 L 4.273438 0 L 0.0859375 0 Z "/>
</g>
<g id="glyph-0-1">
<path d="M 2.265625 -4.433594 L 0.402344 -1.800781 L 2.265625 -1.800781 Z M 2.519531 -5.21875 L 2.878906 -5.21875 L 2.878906 -1.800781 L 3.671875 -1.800781 L 3.671875 -1.296875 L 2.878906 -1.296875 L 2.878906 0 L 2.273438 0 L 2.273438 -1.296875 L 0.0859375 -1.296875 L 0.0859375 -1.800781 Z "/>
</g>
</g>
</defs>
<g fill="rgb(100%, 100%, 100%)" fill-opacity="1">
<use xlink:href="#glyph-0-0" x="30" y="25.833008"/>
<use xlink:href="#glyph-0-1" x="35" y="25.833008"/>
</g>
</svg>
